<svg width="64" height="64" viewBox="0 0 64 64" fill="none" xmlns="http://www.w3.org/2000/svg">
<g clip-path="url(#clip0_3_47)">
<path d="M10.297 37.498C14.976 45.002 23.298 49.996 32.795 49.996C42.292 49.996 50.615 45.002 55.295 37.498H10.297Z" fill="#FFCE54"/>
<path d="M32.734 5.498C12.249 5.498 6.234 21.93 6.234 21.93V39.498L13.325 41.498C13.325 41.498 15.337 42.043 19.201 44.516H46.267C50.131 42.043 52.143 41.498 52.143 41.498L59.234 39.498V21.93C59.234 21.93 53.22 5.498 32.734 5.498Z" fill="#FFCE54"/>
<path d="M19.204 19.498C19.204 18.947 19.654 18.498 20.204 18.498H45.266C45.816 18.498 46.266 18.947 46.266 19.498V36.498C46.266 37.047 45.816 37.498 45.266 37.498H20.204C19.654 37.498 19.204 37.047 19.204 36.498V19.498Z" fill="#E6E9ED"/>
<path d="M30.766 12.998C30.766 20.176 24.945 25.996 17.766 25.996C10.586 25.996 4.766 20.176 4.766 12.998C4.766 5.816 10.586 -0.0019989 17.766 -0.0019989C24.944 -0.0019989 30.766 5.816 30.766 12.998Z" fill="#FC6E51"/>
<path d="M35.266 38.498C35.266 39.047 34.816 39.498 34.266 39.498H31.266C30.716 39.498 30.266 39.047 30.266 38.498V37.498C30.266 36.947 30.716 36.498 31.266 36.498H34.266C34.816 36.498 35.266 36.947 35.266 37.498V38.498Z" fill="#545C66"/>
<path d="M13.266 30.498C13.8183 30.498 14.266 30.0503 14.266 29.498C14.266 28.9457 13.8183 28.498 13.266 28.498C12.7137 28.498 12.266 28.9457 12.266 29.498C12.266 30.0503 12.7137 30.498 13.266 30.498Z" fill="#F6BB42"/>
<path d="M52.266 30.498C52.8183 30.498 53.266 30.0503 53.266 29.498C53.266 28.9457 52.8183 28.498 52.266 28.498C51.7137 28.498 51.266 28.9457 51.266 29.498C51.266 30.0503 51.7137 30.498 52.266 30.498Z" fill="#F6BB42"/>
<path d="M24.266 63.998C24.037 63.998 23.831 63.84 23.779 63.607L18.78 41.607C18.718 41.339 18.887 41.07 19.157 41.009C19.428 40.945 19.694 41.116 19.755 41.386L24.754 63.386C24.816 63.656 24.647 63.923 24.377 63.984C24.339 63.994 24.302 63.998 24.266 63.998ZM41.266 63.998C41.23 63.998 41.193 63.994 41.156 63.984C40.886 63.923 40.718 63.656 40.779 63.386L45.78 41.386C45.842 41.116 46.104 40.947 46.378 41.009C46.648 41.07 46.816 41.339 46.755 41.607L41.754 63.607C41.7 63.84 41.494 63.998 41.266 63.998ZM34.313 64.002C34.14 64.002 33.971 63.91 33.878 63.75L22.058 43.043C21.921 42.803 22.005 42.498 22.245 42.359C22.48 42.226 22.789 42.306 22.928 42.547L34.749 63.254C34.886 63.494 34.802 63.799 34.562 63.936C34.483 63.98 34.398 64.002 34.313 64.002Z" fill="#E6E9ED"/>
<path d="M41.502 62.945C41.329 62.945 41.16 62.853 41.067 62.693L30.237 43.724C30.1 43.484 30.184 43.179 30.424 43.04C30.66 42.907 30.968 42.987 31.107 43.228L41.937 62.197C42.074 62.437 41.99 62.742 41.75 62.879C41.672 62.924 41.587 62.945 41.502 62.945ZM43.722 53.189C43.549 53.189 43.38 53.097 43.287 52.937L37.933 43.56C37.796 43.32 37.88 43.015 38.12 42.876C38.356 42.743 38.664 42.823 38.803 43.064L44.157 52.441C44.294 52.681 44.21 52.986 43.97 53.123C43.892 53.168 43.807 53.189 43.722 53.189ZM21.809 53.186C21.724 53.186 21.639 53.165 21.561 53.12C21.322 52.983 21.238 52.679 21.374 52.438L26.724 43.071C26.862 42.831 27.168 42.751 27.407 42.883C27.646 43.022 27.73 43.326 27.594 43.567L22.244 52.934C22.15 53.094 21.981 53.186 21.809 53.186Z" fill="#E6E9ED"/>
<path d="M24.027 62.949C23.942 62.949 23.857 62.928 23.779 62.885C23.54 62.746 23.456 62.442 23.592 62.201L34.426 43.224C34.564 42.984 34.87 42.904 35.109 43.038C35.348 43.175 35.432 43.479 35.296 43.72L24.462 62.697C24.369 62.859 24.2 62.949 24.027 62.949ZM31.22 63.998C31.135 63.998 31.05 63.977 30.972 63.932C30.733 63.795 30.649 63.491 30.785 63.25L42.602 42.547C42.74 42.307 43.046 42.227 43.285 42.361C43.524 42.498 43.608 42.802 43.472 43.043L31.654 63.746C31.562 63.906 31.393 63.998 31.22 63.998Z" fill="#E6E9ED"/>
<path d="M25.047 13.385C25.183 13.239 25.307 13.092 25.455 12.942C27.228 11.169 29.529 11.422 30.7 11.712C30.666 11.355 30.607 11.005 30.544 10.657C29.084 10.376 26.673 10.313 24.748 12.235C24.642 12.342 24.556 12.448 24.455 12.553C23.738 11.586 22.894 10.584 21.906 9.563L27.294 4.176C27.067 3.93 26.832 3.696 26.587 3.469L21.199 8.856C20.187 7.877 19.195 7.04 18.234 6.327C18.338 6.229 18.443 6.143 18.548 6.038C20.467 4.118 20.429 1.7 20.162 0.229C19.815 0.165 19.467 0.106 19.111 0.0690002C19.386 1.258 19.607 3.563 17.84 5.331C17.693 5.479 17.548 5.601 17.402 5.733C14.421 3.694 11.831 2.819 10.184 2.45C9.825 2.71 9.48 2.987 9.15 3.28C10.48 3.497 13.265 4.196 16.6 6.411C14.789 7.809 13.028 8.339 11.046 8.917C9.219 9.45 7.181 10.062 4.861 11.466C4.813 11.872 4.787 12.284 4.777 12.7C7.228 11.091 9.312 10.464 11.326 9.876C13.416 9.267 15.408 8.675 17.463 7.007C18.442 7.718 19.457 8.566 20.489 9.564L8.236 21.818C8.463 22.064 8.699 22.298 8.943 22.525L21.199 10.27C22.206 11.311 23.061 12.336 23.775 13.323C22.112 15.376 21.525 17.36 20.921 19.444C20.339 21.452 19.716 23.53 18.108 25.979C18.526 25.969 18.939 25.94 19.346 25.891C20.745 23.575 21.352 21.543 21.88 19.723C22.452 17.748 22.977 15.994 24.369 14.188C26.581 17.528 27.265 20.293 27.479 21.614C27.773 21.282 28.051 20.936 28.311 20.575C27.945 18.934 27.074 16.354 25.047 13.385Z" fill="#E9573F"/>
<path d="M32.766 44.498C27.351 44.498 18.266 44.107 18.266 41.498C18.266 38.887 27.351 38.498 32.766 38.498C38.181 38.498 47.266 38.887 47.266 41.498C47.266 44.107 38.181 44.498 32.766 44.498ZM21.183 41.498C22.972 41.969 26.867 42.498 32.766 42.498C38.666 42.498 42.561 41.969 44.349 41.498C42.561 41.027 38.666 40.498 32.766 40.498C26.866 40.498 22.972 41.027 21.183 41.498Z" fill="#656D78"/>
</g>
<defs>
<clipPath id="clip0_3_47">
<rect width="64" height="64" fill="white"/>
</clipPath>
</defs>
</svg>
