<svg width="64" height="64" viewBox="0 0 64 64" fill="none" xmlns="http://www.w3.org/2000/svg">
<path d="M23.6 14.594L26.922 23.39L27.11 23.418C27.8245 22.9457 28.574 22.5284 29.352 22.17C29.406 22.032 29.48 21.906 29.504 21.752L30.982 11.862C31.0209 11.6022 31.0082 11.3374 30.9447 11.0825C30.8812 10.8277 30.7682 10.5878 30.612 10.3766C30.4558 10.1655 30.2595 9.98715 30.0344 9.85183C29.8093 9.71652 29.5598 9.62687 29.3 9.588L23.366 8.7C23.1062 8.66112 22.8414 8.67379 22.5865 8.73728C22.3317 8.80077 22.0918 8.91384 21.8806 9.07003C21.6695 9.22622 21.4911 9.42247 21.3558 9.64758C21.2205 9.87269 21.1309 10.1222 21.092 10.382L20.614 13.582L21.024 13.428C21.5202 13.2412 22.0703 13.2591 22.5534 13.4777C23.0364 13.6964 23.4129 14.0979 23.6 14.594Z" fill="#F04C4D"/>
<path d="M22.722 27.752C23.8711 26.0959 25.311 24.662 26.972 23.52L23.6 14.594C23.5072 14.3483 23.3668 14.1233 23.187 13.9318C23.0072 13.7403 22.7915 13.5861 22.5521 13.478C22.3127 13.3699 22.0544 13.3101 21.7918 13.3018C21.5293 13.2936 21.2677 13.3371 21.022 13.43L15.408 15.55C15.1625 15.6428 14.9378 15.7831 14.7465 15.9628C14.5553 16.1425 14.4013 16.3581 14.2934 16.5973C14.1855 16.8365 14.1258 17.0946 14.1176 17.3569C14.1095 17.6192 14.1531 17.8806 14.246 18.126L17.78 27.48C17.8728 27.7257 18.0132 27.9507 18.193 28.1422C18.3728 28.3337 18.5885 28.4879 18.8279 28.596C19.0673 28.7041 19.3256 28.7639 19.5882 28.7722C19.8507 28.7804 20.1123 28.7369 20.358 28.644L22.722 27.752Z" fill="#FFCC5C"/>
<path d="M25.228 13.466C24.9141 12.6383 24.2846 11.9689 23.4777 11.6048C22.6707 11.2407 21.7523 11.2117 20.924 11.524L20.92 11.526L20.612 13.584L21.022 13.43C21.2677 13.3371 21.5293 13.2936 21.7918 13.3018C22.0544 13.3101 22.3127 13.3699 22.5521 13.478C22.7915 13.5861 23.0072 13.7403 23.187 13.9318C23.3668 14.1233 23.5072 14.3483 23.6 14.594L26.922 23.39L27.11 23.418C27.602 23.088 28.138 22.824 28.668 22.552L25.228 13.466Z" fill="#E13340"/>
<path d="M53.688 37.538C53.688 46.888 46.038 54.538 36.688 54.538C34.4533 54.5459 32.2391 54.1116 30.173 53.2601C28.1069 52.4086 26.2297 51.1567 24.6495 49.5765C23.0693 47.9963 21.8174 46.1191 20.9659 44.053C20.1144 41.9869 19.6801 39.7727 19.688 37.538C19.688 28.018 27.168 20.538 36.688 20.538C38.9227 20.5301 41.1369 20.9644 43.203 21.8159C45.2691 22.6674 47.1463 23.9193 48.7265 25.4995C50.3067 27.0797 51.5586 28.9569 52.4101 31.023C53.2616 33.0891 53.6959 35.3033 53.688 37.538Z" fill="#D5E5F1"/>
<path d="M42.93 21.724C45.9958 24.8901 47.7032 29.1288 47.688 33.536C47.688 42.886 40.038 50.536 30.688 50.536C28.5516 50.5352 26.4343 50.1336 24.446 49.352C26.0301 50.9988 27.9317 52.3073 30.0358 53.1983C32.14 54.0893 34.403 54.5444 36.688 54.536C46.038 54.536 53.688 46.886 53.688 37.536C53.7005 34.1225 52.6796 30.7851 50.7594 27.9628C48.8392 25.1406 46.1097 22.9656 42.93 21.724Z" fill="#B0C4DA"/>
<path d="M32.274 37.54C32.1758 37.5398 32.0782 37.5256 31.984 37.498L23.984 35.074C23.7302 34.9968 23.5174 34.822 23.3925 34.5879C23.2676 34.3539 23.2408 34.0798 23.318 33.826C23.3952 33.5722 23.57 33.3594 23.8041 33.2345C24.0381 33.1096 24.3122 33.0828 24.566 33.16L32.566 35.584C32.7949 35.6542 32.9909 35.8042 33.1186 36.0068C33.2463 36.2093 33.297 36.4509 33.2617 36.6876C33.2263 36.9244 33.1072 37.1407 32.926 37.2971C32.7447 37.4535 32.5134 37.5397 32.274 37.54Z" fill="#2B2A2F"/>
<path d="M36.544 34.038C36.2836 34.0381 36.0334 33.9366 35.8466 33.7551C35.6599 33.5736 35.5513 33.3263 35.544 33.066L35.322 25.066C35.315 24.8009 35.4134 24.5438 35.5956 24.3511C35.7778 24.1585 36.0289 24.0458 36.294 24.038C36.794 24.018 37.304 24.458 37.322 25.01L37.544 33.01C37.551 33.2751 37.4526 33.5322 37.2704 33.7248C37.0882 33.9175 36.8371 34.0302 36.572 34.038H36.544ZM40.848 37.868C40.6163 37.8676 40.3919 37.7868 40.2132 37.6394C40.0344 37.492 39.9124 37.287 39.868 37.0596C39.8237 36.8322 39.8596 36.5964 39.9698 36.3926C40.0799 36.1887 40.2574 36.0295 40.472 35.942L48.472 32.692C48.7155 32.6026 48.9841 32.6113 49.2213 32.7163C49.4585 32.8212 49.6456 33.0142 49.7431 33.2545C49.8407 33.4948 49.8411 33.7636 49.7442 34.0042C49.6474 34.2448 49.4608 34.4383 49.224 34.544L41.224 37.794C41.1047 37.8429 40.9769 37.868 40.848 37.868ZM43.28 49.732C43.0992 49.7323 42.9216 49.6835 42.7663 49.5909C42.611 49.4982 42.4837 49.3652 42.398 49.206L38.398 41.778C38.3342 41.6622 38.2941 41.5349 38.2799 41.4034C38.2656 41.272 38.2776 41.139 38.3151 41.0123C38.3525 40.8855 38.4148 40.7674 38.4982 40.6648C38.5816 40.5623 38.6845 40.4772 38.801 40.4147C38.9175 40.3522 39.0452 40.3134 39.1768 40.3005C39.3084 40.2876 39.4412 40.301 39.5676 40.3398C39.6939 40.3786 39.8114 40.4421 39.9131 40.5266C40.0148 40.6111 40.0987 40.7149 40.16 40.832L44.16 48.26C44.2415 48.4122 44.2822 48.583 44.2781 48.7556C44.274 48.9283 44.2253 49.0969 44.1367 49.2451C44.0481 49.3933 43.9226 49.5161 43.7725 49.6014C43.6224 49.6867 43.4527 49.7317 43.28 49.732ZM29.418 48.262C29.2302 48.261 29.0464 48.2071 28.8877 48.1067C28.7289 48.0062 28.6017 47.8632 28.5203 47.6938C28.439 47.5245 28.4069 47.3357 28.4277 47.149C28.4485 46.9623 28.5214 46.7853 28.638 46.638L32.638 41.638C32.8046 41.4322 33.0457 41.3003 33.3089 41.2711C33.5722 41.2419 33.8363 41.3177 34.044 41.482C34.474 41.828 34.544 42.456 34.2 42.888L30.2 47.888C30.1058 48.0047 29.9867 48.0988 29.8513 48.1635C29.716 48.2283 29.568 48.2619 29.418 48.262Z" fill="#3C3B42"/>
<path d="M40.93 44.134H32.234L29.688 35.862L36.688 30.77L43.688 35.862L40.93 44.134ZM22.64 27.864C20.7022 30.716 19.6737 34.088 19.69 37.536C19.69 38.01 19.722 38.474 19.76 38.938L25.302 34.438L22.64 27.864Z" fill="#3C3B42"/>
<path d="M47.738 34.148L53.626 38.748C53.654 38.346 53.688 37.946 53.688 37.536C53.6964 33.8141 52.4775 30.1932 50.22 27.234L47.738 34.148ZM39.02 54.356C41.2341 54.0434 43.3649 53.2977 45.2907 52.1615C47.2166 51.0253 48.8997 49.5208 50.244 47.734L42.222 46.952L39.02 54.356Z" fill="#2B2A2F"/>
<path d="M32.354 53.968L30.098 46.634H22.322C24.6113 50.2658 28.1988 52.8885 32.354 53.968ZM36.688 20.538C34.5836 20.538 32.4968 20.9216 30.53 21.67L36.396 25.638L42.042 21.404C40.3149 20.8317 38.5074 20.5394 36.688 20.538Z" fill="#3C3B42"/>
<path d="M43.524 47.078L42.696 45.542C42.2084 46.0226 41.6928 46.4741 41.152 46.894L41.76 48.022L39.02 54.358C40.7011 54.1248 42.337 53.6379 43.872 52.914L43.878 52.912C44.38 52.676 44.868 52.416 45.34 52.134L45.35 52.128C45.8218 51.8463 46.2797 51.542 46.722 51.216L46.73 51.21C47.1717 50.8839 47.5975 50.5368 48.006 50.17L48.01 50.168C48.83 49.432 49.578 48.618 50.244 47.736L43.524 47.078ZM53.464 34.788C53.3431 34.0589 53.1741 33.3387 52.958 32.632C52.912 32.476 52.87 32.318 52.818 32.164C52.6061 31.5309 52.3563 30.9111 52.07 30.308C51.978 30.112 51.886 29.916 51.786 29.724C51.3908 28.962 50.9382 28.2312 50.432 27.538C50.362 27.442 50.28 27.358 50.208 27.262L48.224 32.788L47.662 33.016C47.668 33.19 47.688 33.358 47.688 33.534C47.688 34.096 47.658 34.65 47.604 35.2L48.58 34.804L53.626 38.746C53.654 38.344 53.688 37.944 53.688 37.534C53.6838 36.7019 53.6203 35.8711 53.498 35.048C53.486 34.964 53.478 34.874 53.464 34.788ZM31.29 50.506C31.088 50.514 30.892 50.536 30.688 50.536C28.5653 50.5346 26.4614 50.1378 24.484 49.366C24.68 49.57 24.884 49.766 25.09 49.96C25.21 50.072 25.326 50.19 25.45 50.298C25.738 50.552 26.04 50.79 26.344 51.022C26.458 51.11 26.57 51.202 26.688 51.286C27.02 51.528 27.366 51.754 27.716 51.972C27.812 52.032 27.906 52.094 28.004 52.152C28.386 52.378 28.778 52.586 29.178 52.782L29.396 52.89C29.8759 53.1169 30.3664 53.3205 30.866 53.5C31.332 53.668 31.806 53.816 32.29 53.944L32.352 53.96L31.29 50.506Z" fill="#2B2A2F"/>
<path d="M23.6 14.594C23.4384 14.1772 23.14 13.8278 22.7537 13.6028C22.3675 13.3779 21.9162 13.2909 21.474 13.356C21.512 13.428 21.572 13.48 21.6 13.558L23.542 18.58C24.1018 20.0278 24.0788 21.6361 23.4781 23.0674C22.8773 24.4986 21.7454 25.6415 20.32 26.256L18.174 27.18C18.016 27.24 17.854 27.24 17.692 27.258L17.776 27.484C17.8688 27.7297 18.0092 27.9547 18.189 28.1462C18.3688 28.3377 18.5845 28.4919 18.8239 28.6C19.0633 28.7081 19.3216 28.7679 19.5842 28.7762C19.8467 28.7844 20.1083 28.7409 20.354 28.648L22.72 27.754C23.8691 26.0979 25.309 24.664 26.97 23.522L23.6 14.594Z" fill="#F7B546"/>
</svg>
