<svg width="64" height="64" viewBox="0 0 64 64" fill="none" xmlns="http://www.w3.org/2000/svg">
<g clip-path="url(#clip0_3_25)">
<path d="M32.24 35.48L27.47 30.71L25.2 32.98L29.42 37.2L28.72 37.46L24.71 33.45L22.43 35.73L24.96 38.26C24.65 38.29 24.34 38.32 24.1 38.36L21.95 36.21L20.15 38.08C19.93 38.04 19.69 38 19.46 37.95L19.28 37.92L21.47 35.73L19.2 33.46L16.93 35.73L19.06 37.86C18.62 37.76 18.18 37.65 17.8 37.56L16.45 36.21L15.79 36.87C15.56 36.78 15.34 36.68 15.11 36.59L16 35.73L13.73 33.46L12.14 35.05C11.94 34.93 11.74 34.81 11.55 34.68L13.25 32.98L10.98 30.71L8.94 32.75L8.43 32.3L10.5 30.23L8.22 27.95L6.15 30.02L5.7 29.51L7.74 27.47L5.47 25.2L3.78 26.89C3.65 26.7 3.52 26.5 3.4 26.31L5 24.73L2.73 22.46L1.87 23.32C1.77 23.09 1.68 22.86 1.6 22.63L2.25 21.98L0.939999 20.69C0.809999 20.25 0.699999 19.82 0.599999 19.37L2.73 21.5L5 19.24L2.73 16.97L0.549999 19.15C0.539999 19.09 0.519999 19.03 0.519999 18.96C0.469999 18.74 0.419999 18.5 0.359999 18.39L2.26 16.49L0.139999 14.43C0.149999 14.12 0.169999 13.8 0.209999 13.48L2.74 16.01L5.02 13.73L0.999999 9.72C1.08 9.48 1.17 9.25 1.26 9.02L5.49 13.25L7.76 10.98L2.99 6.22L3.47 5.74L8.24 10.51L10.51 8.24L5.74 3.47L6.22 2.99L10.99 7.76L13.26 5.49L9.02 1.26C9.25 1.17 9.49 1.08 9.72 0.999996L13.73 5.01L16 2.74L13.46 0.199996C13.77 0.159996 14.07 0.139996 14.31 0.0899963L16.47 2.25L18.27 0.369996C18.49 0.399996 18.73 0.449996 18.96 0.499996L19.14 0.529996L16.95 2.72L19.22 4.99L21.5 2.71L19.37 0.579996C19.81 0.679996 20.25 0.789996 20.63 0.889996L21.97 2.23L22.62 1.58C22.85 1.66 23.08 1.75 23.31 1.85L22.45 2.71L24.73 5L26.32 3.41C26.51 3.53 26.71 3.65 26.9 3.79L25.21 5.48L27.48 7.75L29.52 5.71L30.03 6.16L27.96 8.23L30.24 10.51L32.31 8.44L32.76 8.95L30.72 10.99L32.99 13.26L34.69 11.56C34.82 11.75 34.94 11.95 35.06 12.15L33.47 13.74L35.73 16L36.59 15.14C36.69 15.36 36.78 15.59 36.87 15.82L36.21 16.48L37.53 17.78C37.65 18.21 37.76 18.64 37.86 19.09L35.73 16.96L33.45 19.24L35.72 21.51L37.92 19.31C37.93 19.37 37.94 19.43 37.95 19.5C38 19.72 38.04 19.96 38.11 20.07L36.2 21.98L38.33 24.05C38.32 24.37 38.3 24.69 38.26 25L35.72 22.46L33.45 24.73L37.46 28.74L37.2 29.44L32.98 25.22L30.71 27.49L35.48 32.26L35 32.74L30.23 27.97L27.96 30.24L32.72 35L32.24 35.48ZM21.98 30.71L19.7 32.99L21.97 35.26L24.25 32.98L21.98 30.71ZM24.73 27.96L22.46 30.23L24.73 32.5L27 30.23L24.73 27.96ZM27.48 25.21L25.21 27.48L27.48 29.75L29.75 27.48L27.48 25.21ZM30.23 22.46L27.96 24.73L30.22 27L32.49 24.73L30.23 22.46ZM32.97 19.72L30.7 21.99L32.97 24.26L35.24 21.99L32.97 19.72ZM16.48 30.72L14.21 32.99L16.48 35.26L18.75 32.99L16.48 30.72ZM19.24 27.96L16.96 30.24L19.23 32.51L21.51 30.23L19.24 27.96ZM21.98 25.21L19.71 27.48L21.98 29.75L24.25 27.48L21.98 25.21ZM24.73 22.46L22.46 24.73L24.73 27L27 24.73L24.73 22.46ZM27.48 19.72L25.21 21.99L27.48 24.26L29.75 21.99L27.48 19.72ZM30.23 16.97L27.96 19.24L30.23 21.51L32.5 19.24L30.23 16.97ZM32.98 14.21L30.7 16.49L32.97 18.76L35.25 16.48L32.98 14.21ZM13.73 27.97L11.46 30.24L13.73 32.51L16 30.24L13.73 27.97ZM16.49 25.21L14.21 27.49L16.48 29.76L18.76 27.48L16.49 25.21ZM19.23 22.47L16.96 24.74L19.23 27L21.5 24.73L19.23 22.47ZM21.98 19.72L19.71 21.99L21.98 24.26L24.25 21.99L21.98 19.72ZM24.73 16.97L22.46 19.24L24.73 21.51L27 19.24L24.73 16.97ZM27.48 14.22L25.21 16.49L27.48 18.76L29.75 16.49L27.48 14.22ZM30.23 11.47L27.95 13.75L30.22 16.02L32.5 13.74L30.23 11.47ZM10.97 25.21L8.7 27.48L10.98 29.76L13.25 27.49L10.97 25.21ZM13.73 22.46L11.45 24.74L13.73 27.02L16.01 24.74L13.73 22.46ZM16.48 19.71L14.21 21.98L16.49 24.26L18.76 21.99L16.48 19.71ZM19.23 16.96L16.96 19.23L19.24 21.51L21.51 19.24L19.23 16.96ZM21.97 14.21L19.7 16.48L21.98 18.76L24.25 16.49L21.97 14.21ZM24.72 11.47L22.45 13.74L24.73 16.02L27 13.74L24.72 11.47ZM27.48 8.71L25.2 10.99L27.48 13.27L29.76 10.99L27.48 8.71ZM8.23 22.46L5.96 24.73L8.23 27L10.5 24.73L8.23 22.46ZM10.98 19.71L8.7 21.99L10.97 24.26L13.25 21.98L10.98 19.71ZM13.73 16.96L11.46 19.23L13.73 21.5L16 19.23L13.73 16.96ZM16.48 14.21L14.21 16.48L16.48 18.75L18.75 16.48L16.48 14.21ZM19.23 11.47L16.96 13.74L19.23 16L21.5 13.73L19.23 11.47ZM21.97 8.72L19.7 10.99L21.97 13.26L24.24 10.99L21.97 8.72ZM24.73 5.96L22.45 8.24L24.72 10.51L27 8.23L24.73 5.96ZM5.48 19.72L3.21 21.99L5.48 24.26L7.75 21.99L5.48 19.72ZM8.24 16.96L5.96 19.24L8.23 21.51L10.51 19.23L8.24 16.96ZM10.98 14.21L8.71 16.48L10.98 18.75L13.25 16.48L10.98 14.21ZM13.73 11.47L11.46 13.74L13.73 16L16 13.73L13.73 11.47ZM16.48 8.72L14.21 10.99L16.48 13.26L18.75 10.99L16.48 8.72ZM19.23 5.97L16.96 8.24L19.23 10.51L21.5 8.24L19.23 5.97ZM21.98 3.21L19.7 5.49L21.97 7.76L24.25 5.48L21.98 3.21ZM5.49 14.21L3.21 16.49L5.48 18.76L7.76 16.48L5.49 14.21ZM8.23 11.47L5.96 13.74L8.24 16L10.51 13.73L8.23 11.47ZM10.98 8.72L8.71 10.99L10.98 13.26L13.25 10.99L10.98 8.72ZM13.73 5.97L11.46 8.24L13.73 10.51L16 8.24L13.73 5.97ZM16.48 3.22L14.21 5.49L16.48 7.76L18.75 5.49L16.48 3.22Z" fill="#DEDEDF"/>
<path d="M7.17 31.3C7.52 31.65 7.89 32 8.25 32.31C9.21893 33.1911 10.2591 33.9905 11.36 34.7C11.62 34.87 11.89 35.04 12.16 35.21C13.07 35.75 13.99 36.22 14.92 36.63C15.23 36.76 15.53 36.89 15.84 37.01C16.47 37.25 17.1 37.46 17.73 37.65C18.17 37.77 18.61 37.89 19.06 37.98C19.19 38.02 19.32 38.05 19.46 38.07C19.69 38.12 19.92 38.17 20.15 38.2C21.36 38.39 22.56 38.48 23.74 38.45V38.48C23.84 38.48 33.46 38.38 43.39 45.4L44.21 44.24L45.37 43.42C38.33 33.46 38.45 23.87 38.45 23.77H38.43C38.45 22.59 38.38 21.39 38.18 20.17C38.15 19.94 38.1 19.71 38.05 19.48C38.03 19.34 38.01 19.21 37.96 19.08C37.86 18.64 37.75 18.19 37.63 17.75C37.45 17.11 37.24 16.49 36.99 15.86C36.4923 14.5859 35.8902 13.355 35.19 12.18C35.02 11.91 34.86 11.64 34.68 11.38C33.9705 10.2791 33.1711 9.23892 32.29 8.27C31.9844 7.88209 31.6537 7.51464 31.3 7.17C30.94 6.81 30.58 6.47 30.21 6.15C29.2375 5.2719 28.1939 4.47584 27.09 3.77C26.84 3.59 26.56 3.41 26.3 3.26C25.39 2.72 24.47 2.25 23.54 1.84C23.23 1.7 22.92 1.57 22.61 1.46C21.567 1.05063 20.4938 0.72298 19.4 0.479996C19.28 0.449996 19.14 0.409996 19 0.389996C18.77 0.339996 18.54 0.289996 18.31 0.259996C16.99 0.0399964 15.69 -0.0400036 14.41 0.00999635C14.01 0.0299964 13.6 0.0499963 13.21 0.109996C12 0.229996 10.85 0.489996 9.75 0.859996C9.43 0.969996 9.12 1.09 8.8 1.22C7.12 1.92 5.58 2.93 4.25 4.25C2.94868 5.55695 1.91591 7.1061 1.21 8.81C1.09 9.12 0.97 9.43 0.86 9.76C0.4831 10.8787 0.231559 12.0358 0.11 13.21C0.06 13.61 0.03 14.02 0.00999996 14.42C-0.03 15.7 0.05 17 0.26 18.3C0.29 18.53 0.34 18.76 0.39 18.99C0.41 19.13 0.44 19.27 0.48 19.39C0.58 19.83 0.69 20.28 0.82 20.72C1 21.36 1.21 21.98 1.46 22.6C1.56 22.91 1.7 23.22 1.84 23.53C2.25 24.46 2.72 25.39 3.26 26.3C3.42 26.56 3.59 26.84 3.77 27.09C4.47585 28.1939 5.2719 29.2375 6.15 30.21C6.47 30.58 6.81 30.94 7.17 31.3ZM30.45 36.88C31.83 36.21 33.1 35.33 34.21 34.22C35.32 33.11 36.2 31.84 36.87 30.46C37.55 33.39 38.76 37.04 40.91 40.92C37.6272 39.0956 34.1069 37.7359 30.45 36.88ZM8.92 29.56C8.56 29.2 8.22 28.84 7.9 28.47C7.69 28.24 7.49 28.01 7.3 27.76C6.75731 27.0996 6.25314 26.4084 5.79 25.69C5.7007 25.5694 5.62048 25.4424 5.55 25.31C5.38 25.05 5.22 24.77 5.06 24.49C4.75 23.93 4.46 23.36 4.2 22.79C4.03 22.41 3.86 22.03 3.72 21.65C3.59 21.33 3.48 21 3.38 20.68C3 19.54 2.74 18.41 2.6 17.27C2.58 17.18 2.57 17.08 2.57 16.97C2.54 16.67 2.5 16.38 2.49 16.07C2.47 15.9 2.46 15.73 2.46 15.56C2.42 14.24 2.54 12.95 2.84 11.73C2.93 11.38 3.01 11.05 3.13 10.71C3.45 9.71 3.9 8.76 4.48 7.88C4.64 7.62 4.83 7.36 5.02 7.11C5.31 6.73 5.64 6.35 5.99 6C6.34 5.65 6.71 5.33 7.11 5.02C7.35 4.83 7.61 4.64 7.88 4.48C8.75 3.9 9.71 3.45 10.72 3.14C11.05 3.02 11.39 2.92 11.74 2.85C12.96 2.55 14.23 2.43 15.54 2.47C15.71 2.47 15.9 2.48 16.07 2.5C16.37 2.52 16.66 2.53 16.95 2.58C17.05 2.58 17.16 2.6 17.26 2.61C18.7575 2.80602 20.2252 3.18554 21.63 3.74C22.01 3.88 22.41 4.05 22.78 4.21C23.36 4.47 23.92 4.76 24.48 5.07C24.76 5.23 25.03 5.39 25.3 5.56C25.42 5.63 25.55 5.71 25.68 5.8C26.38 6.25 27.08 6.76 27.75 7.31C27.99 7.5 28.23 7.7 28.46 7.91C28.84 8.23 29.19 8.57 29.55 8.93C29.9 9.28 30.24 9.64 30.56 10.01C30.77 10.24 30.97 10.47 31.16 10.72C31.71 11.39 32.22 12.09 32.68 12.8C32.75 12.92 32.84 13.04 32.91 13.17C33.08 13.44 33.24 13.71 33.4 13.99C33.71 14.55 34 15.12 34.26 15.69C34.43 16.07 34.59 16.46 34.73 16.84C34.86 17.16 34.97 17.49 35.08 17.8C35.46 18.94 35.71 20.09 35.86 21.21C35.88 21.31 35.89 21.42 35.89 21.52C35.93 21.81 35.95 22.1 35.97 22.4C35.99 22.57 36 22.76 36 22.93C36.03 24.24 35.91 25.51 35.62 26.73C35.55 27.08 35.45 27.42 35.34 27.76C35.02 28.76 34.56 29.72 33.99 30.59C33.82 30.86 33.64 31.11 33.45 31.36C33.14 31.75 32.82 32.13 32.47 32.48C32.11 32.84 31.74 33.16 31.35 33.46C31.11 33.65 30.84 33.84 30.58 34C29.7 34.58 28.75 35.03 27.75 35.35C27.41 35.46 27.08 35.55 26.73 35.64C25.51 35.94 24.22 36.06 22.9 36.02C22.73 36.02 22.56 36.01 22.39 35.99C22.08 35.98 21.79 35.95 21.49 35.91C21.39 35.91 21.29 35.9 21.19 35.88C20.06 35.74 18.92 35.48 17.78 35.1C17.46 35 17.13 34.89 16.81 34.76C16.43 34.62 16.05 34.45 15.67 34.28C15.09 34.02 14.53 33.73 13.97 33.42C13.69 33.26 13.41 33.11 13.15 32.93C13.0245 32.857 12.9011 32.7803 12.78 32.7C12.07 32.24 11.38 31.73 10.7 31.18C10.46 30.99 10.22 30.79 9.99 30.58C9.62 30.24 9.27 29.9 8.92 29.56Z" fill="#445B69"/>
<path d="M40.94 45.1L59.66 63.82C59.7151 63.8766 59.7808 63.9218 59.8534 63.9529C59.9259 63.9841 60.004 64.0006 60.0829 64.0015C60.1619 64.0024 60.2403 63.9877 60.3136 63.9583C60.3868 63.9289 60.4536 63.8853 60.51 63.83L63.83 60.51C64.07 60.27 64.06 59.9 63.82 59.66L45.1 40.94C45.0449 40.8834 44.9792 40.8382 44.9066 40.8071C44.8341 40.7759 44.756 40.7594 44.6771 40.7585C44.5981 40.7576 44.5197 40.7722 44.4464 40.8017C44.3732 40.8311 44.3064 40.8747 44.25 40.93L40.93 44.25C40.8747 44.3064 40.8311 44.3732 40.8017 44.4464C40.7722 44.5197 40.7576 44.5981 40.7585 44.6771C40.7594 44.756 40.7759 44.8341 40.8071 44.9066C40.8382 44.9792 40.8834 45.0449 40.94 45.1Z" fill="#D1395D"/>
<path d="M42.78 46.94L43.18 47.34L46.36 42.2L45.96 41.8L42.78 46.94ZM45.01 49.18L45.41 49.58L48.59 44.43L48.19 44.03L45.01 49.18ZM47.25 51.41L47.65 51.81L50.82 46.66L50.42 46.26L47.25 51.41ZM49.48 53.64L49.88 54.04L53.06 48.9L52.65 48.5L49.48 53.64ZM51.71 55.87L52.11 56.28L55.29 51.13L54.88 50.72L51.71 55.87ZM53.95 58.11L54.34 58.5L57.51 53.35L57.11 52.95L53.95 58.11ZM56.18 60.34L56.57 60.73L59.75 55.59L59.34 55.19L56.18 60.34ZM58.4 62.56L58.8 62.97L61.98 57.82L61.58 57.42L58.4 62.56Z" fill="#FCD66F"/>
<path d="M10.5 41.37C8.13999 41.37 5.99999 42.23 4.35999 43.67C3.99999 43.99 3.65999 44.33 3.34999 44.69C1.93013 46.3786 1.15112 48.5138 1.14999 50.72C1.14999 53.01 1.97999 55.11 3.33999 56.75C3.65999 57.11 3.99999 57.45 4.35999 57.77C6.05703 59.2609 8.2411 60.079 10.5 60.07C11.863 60.0727 13.2099 59.7758 14.4454 59.2003C15.681 58.6249 16.775 57.785 17.65 56.74C19.071 55.0501 19.8502 52.913 19.8502 50.705C19.8502 48.497 19.071 46.3599 17.65 44.67C17.33 44.31 16.99 43.97 16.63 43.65C14.9289 42.1749 12.7516 41.3651 10.5 41.37Z" fill="#41ACD8"/>
<path d="M4.36 43.67C4 43.99 3.66 44.33 3.35 44.69C4.92 46.09 5.92 48.27 5.92 50.72C5.92 53.17 4.91 55.35 3.33 56.75C3.65 57.11 3.99 57.45 4.35 57.77C6.18 56.1 7.36 53.57 7.36 50.72C7.37 47.87 6.19 45.33 4.36 43.67ZM16.63 43.66C14.8 45.33 13.62 47.87 13.62 50.72C13.62 53.57 14.8 56.1 16.63 57.78C17 57.46 17.33 57.12 17.65 56.74C16.07 55.34 15.06 53.16 15.06 50.71C15.06 48.27 16.07 46.08 17.65 44.67C17.33 44.32 16.99 43.97 16.63 43.66Z" fill="#EFF3F5"/>
</g>
<defs>
<clipPath id="clip0_3_25">
<rect width="64" height="64" fill="white"/>
</clipPath>
</defs>
</svg>
