<svg width="64" height="64" viewBox="0 0 64 64" fill="none" xmlns="http://www.w3.org/2000/svg">
<path d="M10.4 7.5C10.4 7.5 32.4 -3.3 53.6 7.5L38.9 50.6L24.3 49.8L10.4 7.5Z" fill="#E5E9E9"/>
<path d="M32 1.2V49.9H29.7L26 2.3C26 2.3 27.2 -2 32 1.2Z" fill="#E5E9E9"/>
<path d="M29.7 49.9H28.1L19.1 4.3L21.4 1.4C21.6 1.2 21.8 1.1 22.1 1.2L26.1 2.4L29.7 49.9Z" fill="#EFEEEF"/>
<path d="M28.1 49.9H26.6L13.6 5.3C13.6 5.3 15.2 0.900001 19 4.2L28.1 49.9Z" fill="#E5E9E9"/>
<path d="M34.3 49.9H35.9L44.9 4.3L42.6 1.4C42.4 1.2 42.2 1.1 41.9 1.2L37.9 2.4L34.3 49.9Z" fill="#E5E9E9"/>
<path d="M35.9 49.9H37.4L50.4 5.3C50.4 5.3 48.8 0.900001 45 4.2L35.9 49.9Z" fill="#EFEEEF"/>
<path d="M53.8 4.5C55.3 6.1 55.8 8.3 55.1 10.3C52.5 17.8 49.7 24.9 46.7 31.8L45.8 34L43.7 39.4L42.8 41.7L40.7 47.2L39.7 49.8H37.5L38.3 47.2L40 41.2L40.6 39.1L40.7 38.8L42.3 33.1L43 30.8L50.3 5.8L50.5 5.2L53.3 4.2C53.4 4.2 53.6 4.3 53.8 4.5Z" fill="#E5E9E9"/>
<path d="M41.2 47.2H22.9V51.6H41.2V47.2Z" fill="#EF4C53"/>
<path d="M24.2 47.2H22.9V51.6H24.2V47.2Z" fill="#DD4A55"/>
<path d="M32 64C27 64 22.9 59.9 22.9 54.9V51.2H41.2V54.9C41.1 59.9 37 64 32 64Z" fill="#EFEEEF"/>
<path d="M39.1 60.6C37.4 62.7 34.9 64 32 64C27 64 22.9 59.9 22.9 54.9V51.2H24.2V53.6C24.2 58.6 28.3 62.7 33.3 62.7C35.5 62.7 37.5 61.9 39.1 60.6Z" fill="#E5E9E9"/>
<path d="M43.7 39.5L42.8 41.8C42.5 41.8 42.3 41.7 42 41.7C41.3 41.6 40.6 41.4 40 41.3C39.2 41.2 38.5 41.1 37.7 41C36.8 40.9 36 40.8 35.1 40.8C34.1 40.7 33.1 40.7 32.1 40.7C31.1 40.7 30.1 40.7 29.1 40.8C28.2 40.8 27.4 40.9 26.5 41C25.7 41.1 25 41.2 24.2 41.3C23.4 41.4 22.6 41.6 21.8 41.7C21.7 41.7 21.5 41.8 21.4 41.8L20.5 39.5C20.7 39.5 20.9 39.4 21 39.4C21.8 39.2 22.6 39.1 23.5 38.9C24.3 38.8 25.1 38.6 26 38.6C27 38.5 27.9 38.4 28.9 38.3C30 38.2 31 38.2 32.1 38.2C33.2 38.2 34.2 38.2 35.3 38.3C36.3 38.3 37.3 38.4 38.2 38.5C39 38.6 39.8 38.7 40.7 38.8C41.4 38.9 42.1 39 42.8 39.2C43.1 39.3 43.4 39.4 43.7 39.5Z" fill="#D1E7EF"/>
<path d="M46.6 31.8L45.8 34C45.4 33.9 45 33.8 44.7 33.7C43.9 33.5 43.1 33.3 42.3 33.2C41.3 33 40.3 32.8 39.3 32.7C38.1 32.5 36.9 32.4 35.7 32.3C34.5 32.2 33.3 32.2 32 32.2C30.8 32.2 29.6 32.2 28.3 32.3C27.1 32.4 25.9 32.5 24.7 32.7C23.7 32.8 22.7 33 21.7 33.2C20.8 33.4 19.9 33.6 19.1 33.8C18.8 33.9 18.5 33.9 18.3 34L17.4 31.7C17.7 31.6 18 31.5 18.3 31.4C19.2 31.1 20.1 30.9 21 30.7C22.1 30.5 23.1 30.3 24.2 30.1C25.5 29.9 26.8 29.7 28.1 29.7C29.4 29.6 30.7 29.6 32 29.6C33.3 29.6 34.6 29.6 35.9 29.7C37.2 29.8 38.5 29.9 39.8 30.1C40.9 30.2 41.9 30.4 43 30.6C43.8 30.8 44.6 30.9 45.5 31.1C45.8 31.5 46.2 31.6 46.6 31.8Z" fill="#D1E7EF"/>
</svg>
