<svg width="64" height="64" viewBox="0 0 64 64" fill="none" xmlns="http://www.w3.org/2000/svg">
<path d="M45 45V5C45 4.46957 45.2107 3.96086 45.5858 3.58579C45.9609 3.21071 46.4696 3 47 3C47.5304 3 48.0391 3.21071 48.4142 3.58579C48.7893 3.96086 49 4.46957 49 5V45M19 5V45H15V5C15.0004 4.6491 15.093 4.30447 15.2687 4.00072C15.4444 3.69697 15.6969 3.44478 16.0009 3.26949C16.3049 3.09419 16.6496 3.00196 17.0005 3.00205C17.3514 3.00214 17.6961 3.09455 18 3.27C18.1514 3.35637 18.2895 3.46415 18.41 3.59C18.7856 3.96335 18.9978 4.47042 19 5Z" fill="#CCCCCC"/>
<path d="M19 5V45H17V5C17.0004 4.64927 17.0929 4.30481 17.2685 4.00116C17.444 3.69751 17.6963 3.44536 18 3.27C18.1514 3.35637 18.2895 3.46415 18.41 3.59C18.7856 3.96335 18.9978 4.47042 19 5ZM49 5V45H47V5C47.0004 4.64927 47.0929 4.30481 47.2685 4.00116C47.444 3.69751 47.6963 3.44536 48 3.27C48.1514 3.35637 48.2895 3.46415 48.41 3.59C48.7856 3.96335 48.9978 4.47042 49 5Z" fill="#DBDCDD"/>
<path d="M9 18H3V23H9V18Z" fill="#E08122"/>
<path d="M15 18H9V23H15V18Z" fill="#F7931E"/>
<path d="M45 10H19V14H45V10Z" fill="#BFBFBF"/>
<path d="M45 12H19V14H45V12Z" fill="#D4D5D6"/>
<path d="M45 21H19V25H45V21Z" fill="#BFBFBF"/>
<path d="M45 32H19V36H45V32Z" fill="#BFBFBF"/>
<path d="M61 41.78C60.23 43.55 59 44.78 57 44.78C55.9126 44.7803 54.8547 44.4261 53.9867 43.771C53.1187 43.116 52.488 42.1958 52.19 41.15C52.1768 41.11 52.1514 41.0751 52.1173 41.0504C52.0832 41.0257 52.0421 41.0125 52 41.0125C51.9579 41.0125 51.9168 41.0257 51.8827 41.0504C51.8486 41.0751 51.8232 41.11 51.81 41.15C51.5129 42.1967 50.8825 43.1179 50.0144 43.7739C49.1464 44.4298 48.088 44.7848 47 44.7848C45.912 44.7848 44.8536 44.4298 43.9856 43.7739C43.1175 43.1179 42.4871 42.1967 42.19 41.15C42.1768 41.11 42.1514 41.0751 42.1173 41.0504C42.0832 41.0257 42.0421 41.0125 42 41.0125C41.9579 41.0125 41.9168 41.0257 41.8827 41.0504C41.8486 41.0751 41.8232 41.11 41.81 41.15C41.5129 42.1967 40.8825 43.1179 40.0144 43.7739C39.1464 44.4298 38.088 44.7848 37 44.7848C35.912 44.7848 34.8536 44.4298 33.9856 43.7739C33.1175 43.1179 32.4871 42.1967 32.19 41.15C32.1768 41.11 32.1514 41.0751 32.1173 41.0504C32.0832 41.0257 32.0421 41.0125 32 41.0125C31.9579 41.0125 31.9168 41.0257 31.8827 41.0504C31.8486 41.0751 31.8232 41.11 31.81 41.15C31.5129 42.1967 30.8825 43.1179 30.0144 43.7739C29.1464 44.4298 28.088 44.7848 27 44.7848C25.912 44.7848 24.8536 44.4298 23.9856 43.7739C23.1175 43.1179 22.4871 42.1967 22.19 41.15C22.1768 41.11 22.1514 41.0751 22.1173 41.0504C22.0832 41.0257 22.0421 41.0125 22 41.0125C21.9579 41.0125 21.9168 41.0257 21.8827 41.0504C21.8486 41.0751 21.8232 41.11 21.81 41.15C21.5129 42.1967 20.8825 43.1179 20.0144 43.7739C19.1464 44.4298 18.088 44.7848 17 44.7848C15.912 44.7848 14.8536 44.4298 13.9856 43.7739C13.1175 43.1179 12.4871 42.1967 12.19 41.15C12.1768 41.11 12.1514 41.0751 12.1173 41.0504C12.0832 41.0257 12.0421 41.0125 12 41.0125C11.9579 41.0125 11.9168 41.0257 11.8827 41.0504C11.8486 41.0751 11.8232 41.11 11.81 41.15C11.512 42.1958 10.8813 43.116 10.0133 43.771C9.1453 44.4261 8.08742 44.7803 7 44.78C5 44.78 3.77 43.55 3 41.78V61H61V41.78Z" fill="#51CAF4"/>
<path d="M61 52C60.23 53.77 59 55 57 55C55.9126 55.0003 54.8547 54.6461 53.9867 53.991C53.1187 53.336 52.488 52.4158 52.19 51.37C52.1768 51.33 52.1514 51.2951 52.1173 51.2704C52.0832 51.2457 52.0421 51.2324 52 51.2324C51.9579 51.2324 51.9168 51.2457 51.8827 51.2704C51.8486 51.2951 51.8232 51.33 51.81 51.37C51.5129 52.4167 50.8825 53.3379 50.0144 53.9939C49.1464 54.6498 48.088 55.0048 47 55.0048C45.912 55.0048 44.8536 54.6498 43.9856 53.9939C43.1175 53.3379 42.4871 52.4167 42.19 51.37C42.1768 51.33 42.1514 51.2951 42.1173 51.2704C42.0832 51.2457 42.0421 51.2324 42 51.2324C41.9579 51.2324 41.9168 51.2457 41.8827 51.2704C41.8486 51.2951 41.8232 51.33 41.81 51.37C41.5129 52.4167 40.8825 53.3379 40.0144 53.9939C39.1464 54.6498 38.088 55.0048 37 55.0048C35.912 55.0048 34.8536 54.6498 33.9856 53.9939C33.1175 53.3379 32.4871 52.4167 32.19 51.37C32.1768 51.33 32.1514 51.2951 32.1173 51.2704C32.0832 51.2457 32.0421 51.2324 32 51.2324C31.9579 51.2324 31.9168 51.2457 31.8827 51.2704C31.8486 51.2951 31.8232 51.33 31.81 51.37C31.5129 52.4167 30.8825 53.3379 30.0144 53.9939C29.1464 54.6498 28.088 55.0048 27 55.0048C25.912 55.0048 24.8536 54.6498 23.9856 53.9939C23.1175 53.3379 22.4871 52.4167 22.19 51.37C22.1768 51.33 22.1514 51.2951 22.1173 51.2704C22.0832 51.2457 22.0421 51.2324 22 51.2324C21.9579 51.2324 21.9168 51.2457 21.8827 51.2704C21.8486 51.2951 21.8232 51.33 21.81 51.37C21.5129 52.4167 20.8825 53.3379 20.0144 53.9939C19.1464 54.6498 18.088 55.0048 17 55.0048C15.912 55.0048 14.8536 54.6498 13.9856 53.9939C13.1175 53.3379 12.4871 52.4167 12.19 51.37C12.1768 51.33 12.1514 51.2951 12.1173 51.2704C12.0832 51.2457 12.0421 51.2324 12 51.2324C11.9579 51.2324 11.9168 51.2457 11.8827 51.2704C11.8486 51.2951 11.8232 51.33 11.81 51.37C11.512 52.4158 10.8813 53.336 10.0133 53.991C9.1453 54.6461 8.08742 55.0003 7 55C5 55 3.77 53.76 3 52V61H61V52Z" fill="#29ABE2"/>
<path d="M55 18H49V23H55V18Z" fill="#F7931E"/>
<path d="M61 18H55V23H61V18Z" fill="#E08122"/>
<path d="M45 23H19V25H45V23Z" fill="#D4D5D6"/>
<path d="M45 34H19V36H45V34Z" fill="#D4D5D6"/>
</svg>
